<svg xmlns="http://www.w3.org/2000/svg">

    <symbol id="icon-settings" viewBox="0 0 36 36"  xmlns="http://www.w3.org/2000/svg">
            <path
                d="M30.015 12.97l-2.567-0.569c-0.2-0.64-0.462-1.252-0.762-1.841l1.389-2.313c0.518-0.829 0.78-2.047 0-2.829l-1.415-1.414c-0.78-0.781-2.098-0.64-2.894-0.088l-2.251 1.434c-0.584-0.303-1.195-0.563-1.829-0.768l-0.576-2.598c-0.172-0.953-1.005-1.984-2.11-1.984h-2c-1.104 0-1.781 1.047-2 2l-0.642 2.567c-0.678 0.216-1.328 0.492-1.948 0.819l-2.308-1.47c-0.795-0.552-2.114-0.692-2.894 0.088l-1.415 1.414c-0.781 0.782-0.519 2 0 2.828l1.461 2.435c-0.274 0.552-0.517 1.123-0.705 1.72l-2.566 0.569c-0.953 0.171-1.984 1.005-1.984 2.109v2c0 1.105 1.047 1.782 2 2l2.598 0.649c0.179 0.551 0.404 1.080 0.658 1.593l-1.462 2.438c-0.518 0.828-0.78 2.047 0 2.828l1.415 1.414c0.78 0.782 2.098 0.64 2.894 0.089l2.313-1.474c0.623 0.329 1.277 0.608 1.96 0.823l0.64 2.559c0.219 0.953 0.896 2 2 2h2c1.105 0 1.938-1.032 2.11-1.985l0.577-2.604c0.628-0.203 1.23-0.459 1.808-0.758l2.256 1.438c0.796 0.552 2.114 0.692 2.895-0.089l1.415-1.414c0.78-0.782 0.518-2 0-2.828l-1.39-2.317c0.279-0.549 0.521-1.12 0.716-1.714l2.599-0.649c0.953-0.219 2-0.895 2-2v-2c0-1.104-1.031-1.938-1.985-2.11zM30.001 16.939c-0.085 0.061-0.245 0.145-0.448 0.192l-3.708 0.926-0.344 1.051c-0.155 0.474-0.356 0.954-0.597 1.428l-0.502 0.986 1.959 3.267c0.125 0.2 0.183 0.379 0.201 0.485l-1.316 1.314c-0.127-0.040-0.271-0.092-0.341-0.14l-3.292-2.099-1.023 0.529c-0.493 0.256-0.999 0.468-1.503 0.631l-1.090 0.352-0.824 3.723c-0.038 0.199-0.145 0.36-0.218 0.417h-1.8c-0.061-0.085-0.145-0.245-0.191-0.448l-0.921-3.681-1.066-0.338c-0.549-0.173-1.097-0.404-1.63-0.684l-1.028-0.543-3.293 2.099c-0.135 0.091-0.279 0.143-0.409 0.143l-1.311-1.276c0.018-0.104 0.072-0.274 0.181-0.449l2.045-3.408-0.487-0.98c-0.227-0.462-0.407-0.895-0.547-1.325l-0.343-1.052-3.671-0.918c-0.231-0.052-0.398-0.139-0.485-0.2v-1.86c0.001 0.001 0.002 0.001 0.005 0.001 0.034 0 0.198-0.117 0.335-0.142l3.772-0.835 0.346-1.103c0.141-0.449 0.333-0.917 0.588-1.43l0.487-0.98-2.024-3.373c-0.125-0.201-0.184-0.38-0.201-0.485l1.315-1.314c0.128 0.041 0.271 0.093 0.34 0.14l3.354 2.138 1.027-0.542c0.527-0.278 1.073-0.507 1.622-0.682l1.063-0.338 0.912-3.649c0.053-0.231 0.138-0.398 0.2-0.485h1.859c-0.014 0.020 0.115 0.195 0.142 0.339l0.84 3.794 1.089 0.352c0.511 0.165 1.023 0.38 1.523 0.639l1.023 0.532 3.224-2.053c0.135-0.092 0.279-0.143 0.409-0.143l1.313 1.276c-0.017 0.104-0.072 0.276-0.181 0.45l-1.98 3.296 0.505 0.988c0.273 0.533 0.48 1.033 0.635 1.529l0.346 1.104 3.697 0.82c0.224 0.041 0.398 0.171 0.434 0.241zM16.013 9.99c-3.321 0-6.023 2.697-6.023 6.010s2.702 6.010 6.023 6.010 6.023-2.697 6.023-6.009c0-3.313-2.702-6.010-6.023-6.010zM16 20c-2.205 0-4-1.794-4-4s1.794-4 4-4c2.206 0 4 1.794 4 4s-1.794 4-4 4z" fill="currentColor">
            </path> 
    </symbol>

    <symbol id="icon-logout" viewBox="0 0 15 15"  xmlns="http://www.w3.org/2000/svg">
        <path fill-rule="evenodd" clip-rule="evenodd" d="M1 1L8 1V2L2 2L2 13H8V14H1L1 1ZM10.8536 4.14645L14.1932 7.48614L10.8674 11.0891L10.1326 10.4109L12.358 8L4 8V7L12.2929 7L10.1464 4.85355L10.8536 4.14645Z" fill="currentColor"/>
    </symbol>

    <symbol id="icon-google" viewBox="0 0 32 32" fill="none" xmlns="http://www.w3.org/2000/svg">
        <path d="M30.0014 16.3109C30.0014 15.1598 29.9061 14.3198 29.6998 13.4487H16.2871V18.6442H24.1601C24.0014 19.9354 23.1442 21.8798 21.2394 23.1864L21.2127 23.3604L25.4536 26.58L25.7474 26.6087C28.4458 24.1665 30.0014 20.5731 30.0014 16.3109Z" fill="#4285F4"/>
        <path d="M16.2863 29.9998C20.1434 29.9998 23.3814 28.7553 25.7466 26.6086L21.2386 23.1863C20.0323 24.0108 18.4132 24.5863 16.2863 24.5863C12.5086 24.5863 9.30225 22.1441 8.15929 18.7686L7.99176 18.7825L3.58208 22.127L3.52441 22.2841C5.87359 26.8574 10.699 29.9998 16.2863 29.9998Z" fill="#34A853"/>
        <path d="M8.15964 18.769C7.85806 17.8979 7.68352 16.9645 7.68352 16.0001C7.68352 15.0356 7.85806 14.1023 8.14377 13.2312L8.13578 13.0456L3.67083 9.64746L3.52475 9.71556C2.55654 11.6134 2.00098 13.7445 2.00098 16.0001C2.00098 18.2556 2.55654 20.3867 3.52475 22.2845L8.15964 18.769Z" fill="#FBBC05"/>
        <path d="M16.2864 7.4133C18.9689 7.4133 20.7784 8.54885 21.8102 9.4978L25.8419 5.64C23.3658 3.38445 20.1435 2 16.2864 2C10.699 2 5.8736 5.1422 3.52441 9.71549L8.14345 13.2311C9.30229 9.85555 12.5086 7.4133 16.2864 7.4133Z" fill="#EB4335"/>
    </symbol>

    <symbol id="icon-error" viewBox="0 0 16 16" xmlns="http://www.w3.org/2000/svg" xmlns:xlink="http://www.w3.org/1999/xlink">
        <path d="M8 15A7 7 0 1 1 8 1a7 7 0 0 1 0 14zm0-2A5 5 0 1 0 8 3a5 5 0 0 0 0 10zm0-9a1 1 0 0 1 1 1v3a1 1 0 1 1-2 0V5a1 1 0 0 1 1-1zm0 8a1 1 0 1 1 0-2 1 1 0 0 1 0 2z" fill="currentColor"/>
    </symbol>


    <symbol id="icon-showPassword" viewBox="0 -16 544 544"  xmlns="http://www.w3.org/2000/svg" >
        <path d="M272 400Q205 400 151 361 96 322 64 256 96 190 151 151 205 112 272 112 336 112 392 153 448 193 480 256 448 319 392 360 336 400 272 400ZM272 352Q312 352 340 324 368 296 368 256 368 216 340 188 312 160 272 160 232 160 204 188 176 216 176 256 176 296 204 324 232 352 272 352ZM272 312Q249 312 233 296 216 279 216 256 216 233 233 217 249 200 272 200 295 200 312 217 328 233 328 256 328 279 312 296 295 312 272 312Z" fill="currentColor"/>
    </symbol>

    <symbol id="icon-hidePassword" viewBox="0 -16 544 544" xmlns="http://www.w3.org/2000/svg" >
        <path d="M108 60L468 420 436 452 362 378Q321 400 272 400 208 400 154 361 99 322 64 256 79 229 102 202 124 174 144 160L76 92 108 60ZM368 256Q368 216 340 188 312 160 272 160L229 117Q254 112 272 112 337 112 392 152 446 192 480 256 474 269 461 288 448 307 434 322L368 256ZM272 352Q299 352 322 338L293 309Q283 312 272 312 249 312 233 296 216 279 216 256 216 247 220 236L190 206Q176 229 176 256 176 296 204 324 232 352 272 352Z" file="currentColor"/>
    </symbol>

    <symbol  id="icon-music" viewBox="0 0 100 100" xmlns="http://www.w3.org/2000/svg" xmlns:xlink="http://www.w3.org/1999/xlink" xml:space="preserve">
        <path d="M84.105,13.627L84.105,13.627H32.938l0,0c-1.764,0-3.195,1.431-3.195,3.195v48.069c-1.131-0.249-2.315-0.394-3.543-0.394
            c-7.456,0-13.5,4.896-13.5,10.938c0,6.041,6.044,10.937,13.5,10.937c7.455,0,13.5-4.896,13.5-10.937V29.257h37.644v26.401
            c-1.131-0.249-2.315-0.394-3.543-0.394c-7.456,0-13.5,4.896-13.5,10.938s6.044,10.937,13.5,10.937c7.455,0,13.5-4.896,13.5-10.937
            V16.823C87.3,15.058,85.87,13.628,84.105,13.627z" fill="currentColor"/>
    </symbol>

    <symbol id="icon-back" viewBox="0 0 1024 1024" xmlns="http://www.w3.org/2000/svg">
        <path fill="currentColor" d="M224 480h640a32 32 0 1 1 0 64H224a32 32 0 0 1 0-64z"/>
        <path fill="currentColor" d="m237.248 512 265.408 265.344a32 32 0 0 1-45.312 45.312l-288-288a32 32 0 0 1 0-45.312l288-288a32 32 0 1 1 45.312 45.312L237.248 512z"/>
    </symbol>

    <symbol id="icon-Leaderboard" viewBox="0 0 512 512" enable-background="new 0 0 512 512"  xml:space="preserve" xmlns="http://www.w3.org/2000/svg" xmlns:xlink="http://www.w3.org/1999/xlink">
        <path d="M471.909,217.5H351.421c-3.711,0-5.921,4.132-5.921,7.865v266.604c0,3.713,2.21,6.531,5.921,6.531h120.488   c3.711,0,5.591-2.818,5.591-6.531V225.365C477.5,221.632,475.62,217.5,471.909,217.5z"/>
        <path d="M318.5,366.648c0-3.729-2.641-7.148-6.368-7.148h-121.5c-3.728,0-7.132,3.42-7.132,7.148v126.5   c0,3.727,3.404,6.352,7.132,6.352h121.5c3.728,0,6.368-2.625,6.368-6.352V366.648z"/>
        <path d="M158.5,435.648c0-3.729-2.64-7.148-6.368-7.148h-121.5c-3.728,0-7.132,3.42-7.132,7.148v56.5   c0,3.727,3.404,6.352,7.132,6.352h121.5c3.728,0,6.368-2.625,6.368-6.352V435.648z"/>
        <path d="M59.5,395.459c3.416,0,7-2.771,7-6.188v-30.756c0-45.203,35.901-83.016,81.104-83.016h40.838   c3.418,0,6.058-1.734,6.058-5.15v-41.471c0-47.924,39.12-88.378,87.044-88.378h0.956v14.757c0,2.164,1.125,4.08,3.133,4.887   c0.641,0.258,1.222,0.383,1.882,0.383c1.406,0,2.735-0.566,3.753-1.633l18.589-19.477c1.949-2.041,1.939-5.238-0.012-7.277   l-18.613-19.479c-1.498-1.566-3.591-2.055-5.597-1.25c-2.01,0.805-3.135,2.723-3.135,4.887V129.5h-0.956   c-54.748,0-101.044,44.63-101.044,99.378V264.5h-32.896c-52.027,0-95.104,41.99-95.104,94.016v30.756   C52.5,392.688,56.084,395.459,59.5,395.459z"/>
        <path d="M410.5,40.318c3.416,0,7-2.77,7-6.188V19.107c0-3.418-3.584-6.188-7-6.188s-7,2.77-7,6.188V34.13   C403.5,37.548,407.084,40.318,410.5,40.318z"/>
        <path d="M439.237,46.416c0.902,0.465,1.867,0.684,2.816,0.684c2.248,0,4.416-1.23,5.512-3.367l6.957-13.578   c1.557-3.041,0.354-6.77-2.688-8.328c-3.041-1.563-6.77-0.355-8.328,2.686l-6.955,13.576   C434.993,41.13,436.196,44.859,439.237,46.416z"/>
        <path d="M375.431,42.513c1.053,2.244,3.279,3.563,5.605,3.563c0.881,0,1.773-0.189,2.623-0.586   c3.094-1.453,4.426-5.137,2.975-8.232l-6.463-13.781c-1.449-3.092-5.133-4.42-8.229-2.975c-3.094,1.453-4.426,5.135-2.975,8.23   L375.431,42.513z"/>
        <path d="M470.728,80.5h-12.385l0.875-14.082c0.234-3.814-2.797-6.918-6.619-6.918h-83.877c-3.822,0-6.854,3.104-6.617,6.918   l0.873,14.082h-10.352c-9.676,0-17.529,8.062-17.529,17.737c0,5.152,2.25,10.139,6.211,13.467l15.365,13.056l0.002,0.055   l9.945,8.416c-0.002-0.012-0.004-0.021-0.006-0.032l0.006,0.005l0.027,0.036c3.271,16.344,15.336,29.375,30.951,34.113   c3.102,0.943,5.238,3.791,5.465,7.025l2.299,23.269c0.092,1.301-0.939,1.853-2.244,1.853h-19.854c-1.244,0-1.765,2.121-1.765,3.361   v4.5c0,1.244,0.521,1.139,1.765,1.139h54.793c1.242,0,1.442,0.105,1.442-1.139v-4.5c0-1.24-0.2-3.361-1.442-3.361h-19.852   c-1.305,0-2.336-0.55-2.246-1.851l2.301-23.544c0.227-3.234,2.361-5.862,5.463-6.806c14.928-4.533,26.605-16.799,30.465-31.799   h0.025l0.006-0.089c-0.002,0.012-0.022-0.016-0.026-0.006l10.307-8.79v-0.014l17.525-14.799c3.938-3.328,6.196-8.418,6.196-13.571   C488.222,88.558,480.38,80.5,470.728,80.5z M347.112,104.947c-1.912-1.619-3.016-4.213-3.016-6.709   c0-4.705,3.826-8.737,8.529-8.737h1.861h0.027h9.023h-0.027h0.021l1.879,30.704l-9.502-7.802L347.112,104.947z M410.405,137.337   c-13.773,0-24.939-11.168-24.939-24.941c0-13.777,11.166-24.943,24.939-24.943c13.777,0,24.943,11.166,24.943,24.943   C435.349,126.169,424.183,137.337,410.405,137.337z M476.218,104.947l-10.912,9.225l-9.506,7.814l1.988-32.485h0.029h-0.027h9.023   h0.027h3.887c4.703,0,8.506,4.032,8.506,8.737C479.233,100.733,478.13,103.328,476.218,104.947z"/>
        <circle cx="410.405" cy="112.396" r="12.375"/>
    </symbol>


    <symbol id="icon-achievement" xmlns="http://www.w3.org/2000/svg" xmlns:xlink="http://www.w3.org/1999/xlink" 
        viewBox="0 0 24 24" xml:space="preserve">
            <path d="M19.4,14.1l1.4,1.4l-4.6,4.6l-3-3l1.4-1.4l1.6,1.6L19.4,14.1z"/>
            <path d="M24,7.3V2h-5V0H5v2H0v5.3C0,10,2.1,12,5,12h0.7c0.5,1.1,1.3,2,2.2,2.6c-0.9,0.9-1.6,2.1-1.8,3.4H4v6h13v0c0,0,0,0,0,0
                c3.9,0,7-3.1,7-7c0-2.2-1.1-4.2-2.7-5.5C22.9,10.7,24,9.2,24,7.3z M5,10c-1.7,0-3-1.1-3-2.7V4h3v5C5,9.3,5,9.7,5,10L5,10z M7,9V2
                h10v8c-2.7,0-5.1,1.6-6.2,3.8C8.6,13.3,7,11.3,7,9z M9.8,15.7c0.1,0,0.2,0.1,0.3,0.1C10,16.1,10,16.6,10,17c0,0.3,0,0.7,0.1,1H8.1
                C8.4,17,9,16.2,9.8,15.7z M6,22v-2h4.7c0.4,0.7,0.8,1.4,1.4,2H6z M22,17c0,2.8-2.2,5-5,5s-5-2.2-5-5s2.2-5,5-5S22,14.2,22,17z
                M22,7.3c0,1.6-1.3,2.7-3,2.7V4h3V7.3z"/>
    </symbol>


</svg>

